<?xml version="1.0"?>
<svg version="1.1" xmlns="http://www.w3.org/2000/svg" width="400px" height="200px" style=""><path fill="#50a5bf" d="M64.392,106.804q1.092-0.532,1.792-1.764q0.7-1.176,0.7-2.52q0-2.408-1.624-3.892q-1.624-1.456-4.088-1.456l-7.868,0l-0.336,0l-1.428,0l0,19.628l1.428,0l0.336,0l7.868,0q2.464,0,4.088-1.456q1.624-1.484,1.624-3.892q0-1.316-0.686-2.562t-1.806-2.086z M53.304,98.6l7.868,0q1.68,0,2.772,1.148q1.176,1.232,1.176,2.772q0,1.26-0.924,2.324q-0.868,0.952-2.296,1.26l-0.728,0l-7.868,0l0-7.504z M61.172,115.372l-7.868,0l0-7.504l7.868,0l0.728,0q1.428,0.308,2.296,1.26q0.924,1.064,0.924,2.324q0,1.512-1.176,2.744q-1.12,1.176-2.772,1.176z M71.49952,116.856l13.692,0l0-1.428l-11.956,0l0-18.228l-1.736,0l0,19.656z M95.99504,97.2q-3.164,0-5.432,2.268q-2.296,2.296-2.296,5.46l0,4.228q0,3.108,2.296,5.404t5.432,2.296q3.164,0,5.46-2.296q2.268-2.268,2.268-5.404l0-4.228q0-3.192-2.268-5.46t-5.46-2.268z M101.98704,104.928l0,4.228q0,2.548-1.792,4.284q-1.764,1.68-4.2,1.68t-4.172-1.68q-1.792-1.736-1.792-4.284l0-4.228q0-2.352,1.792-4.2q1.792-1.792,4.172-1.792q2.352,0,4.2,1.792q1.792,1.848,1.792,4.2z M117.18656,98.88l5.404,0l0-1.764l-5.404,0q-4.032,0-6.832,2.856q-2.828,2.884-2.828,7.196q0,4.004,2.828,6.832t6.832,2.828l3.584,0l1.82,0l0-1.792l0-8.96l-1.82,0l-4.284,0l0,1.792l4.284,0l0,7.168l-3.584,0q-3.192,0-5.516-2.324t-2.324-5.544q0-3.5,2.324-5.908q2.296-2.38,5.516-2.38z M140.6696,99.244l10.556,0l0-2.128l-10.556,0q-2.072,0-3.472,1.624q-1.428,1.652-1.428,4.004q0,2.128,1.428,3.696q1.4,1.596,3.472,1.596l2.8,0l2.856,0q1.26,0,2.24,1.064q0.924,1.12,0.924,2.436q0,1.568-0.91,2.548t-2.254,0.98l-10.556,0l0,1.736l10.556,0q2.1,0,3.5-1.456t1.4-3.808q0-2.128-1.4-3.696q-1.428-1.568-3.5-1.568l-2.856,0l-2.8,0q-1.288,0-2.212-1.12q-0.952-1.036-0.952-2.408q0-1.568,0.91-2.534t2.254-0.966z M155.39312,116.828l1.764,0l0-19.684l-1.764,0l0,19.684z M175.85664,97.2l-15.176,0l0,1.708l6.888,0l0,17.948l1.736,0l0-17.948l6.552,0l0-1.708z M181.00416,111.424q0-1.344,0.952-2.436q0.952-1.148,2.296-1.148l0.364,0l5.236,0l0-1.736l-5.236,0l-0.364,0q-1.428-0.28-2.338-1.232t-0.91-2.268q0-1.652,0.966-2.618t2.646-0.966l9.52,0l0-1.764l-9.52,0q-2.156,0-3.752,1.596q-1.596,1.54-1.596,3.752q0,1.4,0.532,2.548t1.568,1.652q-1.036,0.756-1.568,1.988t-0.532,2.632q0,2.184,1.596,3.724q1.624,1.624,3.752,1.624l9.52,0l0-1.848l-9.52,0q-1.68,0-2.646-0.952t-0.966-2.548z"/><path fill="#" d=""/></svg>
